# xmcd
# 
# Track frame offsets:
#     182
#     18900
#     34882
#     46015
#     57530
#     66385
#     79332
#     92200
#     101400
#     111275
#     124035
#     133432
#     147132
#     171242
# 
# Disc length: 2388
# 
# Revision: 2
# Processed by: cddbd v1.5.2PL0 Copyright (c) Steve Scherf et al.
# Submitted via: fre:ac v1.0.31
# 
DISCID=ca09520e
DTITLE=Jack Elliot and Derrol Adams - Selection of America - Mule Skinner's Blues
DYEAR=1996
DGENRE=Country
TTITLE0=Mule skinner's blues
TTITLE1=How long blues
TTITLE2=Percious jewel
TTITLE3=Death of John Henry
TTITLE4=Ain't it a shame
TTITLE5=East Virginia Blues
TTITLE6=Stern old bachelor
TTITLE7=Cigarettes and whiskey
TTITLE8=The cuckoo
TTITLE9=Salty dog blues
TTITLE10=I'm going down the road
TTITLE11=Rich and rambling boy
TTITLE12=Death of Mr. Garfield
TTITLE13=I'm gonna walk the street in glory
EXTD=YEAR: 1996
EXTT0=
EXTT1=
EXTT2=
EXTT3=
EXTT4=
EXTT5=
EXTT6=
EXTT7=
EXTT8=
EXTT9=
EXTT10=
EXTT11=
EXTT12=
EXTT13=
PLAYORDER=
